<mxfile host="65bd71144e">
    <diagram id="SWz_63xL_ImdoXvrDHhz" name="第 1 页">
        <mxGraphModel dx="426" dy="283" grid="1" gridSize="10" guides="1" tooltips="1" connect="1" arrows="1" fold="1" page="1" pageScale="1" pageWidth="827" pageHeight="1169" math="0" shadow="0">
            <root>
                <mxCell id="0"/>
                <mxCell id="1" parent="0"/>
                <mxCell id="2" value="&lt;font style=&quot;font-size: 10px;&quot;&gt;c0&lt;/font&gt;" style="rounded=0;whiteSpace=wrap;html=1;fontSize=10;fillColor=#eeeeee;strokeColor=#36393d;" vertex="1" parent="1">
                    <mxGeometry x="230" y="106" width="20" height="10" as="geometry"/>
                </mxCell>
                <mxCell id="3" value="A" style="rounded=0;whiteSpace=wrap;html=1;fontSize=10;fillColor=#eeeeee;strokeColor=#36393d;" vertex="1" parent="1">
                    <mxGeometry x="60" y="70" width="20" height="10" as="geometry"/>
                </mxCell>
                <mxCell id="4" value="B" style="rounded=0;whiteSpace=wrap;html=1;fontSize=10;fillColor=#eeeeee;strokeColor=#36393d;" vertex="1" parent="1">
                    <mxGeometry x="80" y="70" width="10" height="10" as="geometry"/>
                </mxCell>
                <mxCell id="5" value="C" style="rounded=0;whiteSpace=wrap;html=1;fontSize=10;fillColor=#eeeeee;strokeColor=#36393d;" vertex="1" parent="1">
                    <mxGeometry x="90" y="70" width="30" height="10" as="geometry"/>
                </mxCell>
                <mxCell id="6" value="D" style="rounded=0;whiteSpace=wrap;html=1;fontSize=10;fillColor=#eeeeee;strokeColor=#36393d;" vertex="1" parent="1">
                    <mxGeometry x="120" y="70" width="20" height="10" as="geometry"/>
                </mxCell>
                <mxCell id="7" value="&lt;font style=&quot;font-size: 10px;&quot;&gt;a0&lt;/font&gt;" style="rounded=0;whiteSpace=wrap;html=1;fontSize=10;fillColor=#eeeeee;strokeColor=#36393d;" vertex="1" parent="1">
                    <mxGeometry x="210" y="86" width="20" height="10" as="geometry"/>
                </mxCell>
                <mxCell id="8" value="&lt;font style=&quot;font-size: 10px;&quot;&gt;c0&lt;/font&gt;" style="rounded=0;whiteSpace=wrap;html=1;fontSize=10;fillColor=#eeeeee;strokeColor=#36393d;" vertex="1" parent="1">
                    <mxGeometry x="250" y="86" width="20" height="10" as="geometry"/>
                </mxCell>
                <mxCell id="9" value="d0" style="rounded=0;whiteSpace=wrap;html=1;fontSize=10;fillColor=#eeeeee;strokeColor=#36393d;" vertex="1" parent="1">
                    <mxGeometry x="270" y="86" width="20" height="10" as="geometry"/>
                </mxCell>
                <mxCell id="10" value="b0" style="rounded=0;whiteSpace=wrap;html=1;fontSize=10;fillColor=#eeeeee;strokeColor=#36393d;" vertex="1" parent="1">
                    <mxGeometry x="210" y="106" width="20" height="10" as="geometry"/>
                </mxCell>
                <mxCell id="11" value="d0" style="rounded=0;whiteSpace=wrap;html=1;fontSize=10;fillColor=#eeeeee;strokeColor=#36393d;" vertex="1" parent="1">
                    <mxGeometry x="210" y="146" width="20" height="10" as="geometry"/>
                </mxCell>
                <mxCell id="12" value="meta" style="rounded=0;whiteSpace=wrap;html=1;fontSize=10;fillColor=#f5f5f5;fontColor=#333333;strokeColor=#666666;" vertex="1" parent="1">
                    <mxGeometry x="180" y="86" width="30" height="10" as="geometry"/>
                </mxCell>
                <mxCell id="13" value="meta" style="rounded=0;whiteSpace=wrap;html=1;fontSize=10;fillColor=#f5f5f5;fontColor=#333333;strokeColor=#666666;" vertex="1" parent="1">
                    <mxGeometry x="180" y="106" width="30" height="10" as="geometry"/>
                </mxCell>
                <mxCell id="14" value="meta" style="rounded=0;whiteSpace=wrap;html=1;fontSize=10;fillColor=#f5f5f5;fontColor=#333333;strokeColor=#666666;" vertex="1" parent="1">
                    <mxGeometry x="180" y="146" width="30" height="10" as="geometry"/>
                </mxCell>
                <mxCell id="15" value="imms" style="rounded=0;whiteSpace=wrap;html=1;fontSize=10;fillColor=#f5f5f5;fontColor=#333333;strokeColor=#666666;" vertex="1" parent="1">
                    <mxGeometry x="300" y="86" width="50" height="10" as="geometry"/>
                </mxCell>
                <mxCell id="16" value="imms" style="rounded=0;whiteSpace=wrap;html=1;fontSize=10;fillColor=#f5f5f5;fontColor=#333333;strokeColor=#666666;" vertex="1" parent="1">
                    <mxGeometry x="310" y="106" width="40" height="10" as="geometry"/>
                </mxCell>
                <mxCell id="17" value="imms" style="rounded=0;whiteSpace=wrap;html=1;fontSize=10;fillColor=#f5f5f5;fontColor=#333333;strokeColor=#666666;" vertex="1" parent="1">
                    <mxGeometry x="320" y="116" width="30" height="10" as="geometry"/>
                </mxCell>
                <mxCell id="18" value="二进制文件代码段" style="text;html=1;strokeColor=none;fillColor=none;align=center;verticalAlign=middle;whiteSpace=wrap;rounded=0;" vertex="1" parent="1">
                    <mxGeometry x="50" y="30" width="100" height="20" as="geometry"/>
                </mxCell>
                <mxCell id="19" value="&lt;font style=&quot;font-size: 12px;&quot;&gt;预翻译文件代码段&lt;/font&gt;" style="text;html=1;strokeColor=none;fillColor=none;align=center;verticalAlign=middle;whiteSpace=wrap;rounded=0;" vertex="1" parent="1">
                    <mxGeometry x="180" y="30" width="170" height="20" as="geometry"/>
                </mxCell>
                <mxCell id="20" value="&lt;font style=&quot;font-size: 10px;&quot;&gt;c0&lt;/font&gt;" style="rounded=0;whiteSpace=wrap;html=1;fontSize=10;fillColor=#eeeeee;strokeColor=#36393d;" vertex="1" parent="1">
                    <mxGeometry x="210" y="116" width="20" height="10" as="geometry"/>
                </mxCell>
                <mxCell id="21" value="0x0" style="rounded=0;whiteSpace=wrap;html=1;fontSize=8;fillColor=none;strokeColor=none;" vertex="1" parent="1">
                    <mxGeometry x="160" y="86" width="10" height="10" as="geometry"/>
                </mxCell>
                <mxCell id="22" value="0x40" style="rounded=0;whiteSpace=wrap;html=1;fontSize=8;fillColor=none;strokeColor=none;" vertex="1" parent="1">
                    <mxGeometry x="160" y="96" width="10" height="10" as="geometry"/>
                </mxCell>
                <mxCell id="23" value="0x80" style="rounded=0;whiteSpace=wrap;html=1;fontSize=8;fillColor=none;strokeColor=none;" vertex="1" parent="1">
                    <mxGeometry x="160" y="106" width="10" height="10" as="geometry"/>
                </mxCell>
                <mxCell id="24" value="" style="group" vertex="1" connectable="0" parent="1">
                    <mxGeometry x="60" y="60" width="80" height="10" as="geometry"/>
                </mxCell>
                <mxCell id="25" value="&lt;span style=&quot;font-size: 8px;&quot;&gt;0&lt;/span&gt;" style="text;html=1;strokeColor=none;fillColor=none;align=center;verticalAlign=middle;whiteSpace=wrap;rounded=0;spacingLeft=0;spacing=2;spacingRight=0;spacingBottom=1;" vertex="1" parent="24">
                    <mxGeometry width="10" height="10" as="geometry"/>
                </mxCell>
                <mxCell id="26" value="&lt;span style=&quot;font-size: 8px;&quot;&gt;1&lt;/span&gt;" style="text;html=1;strokeColor=none;fillColor=none;align=center;verticalAlign=middle;whiteSpace=wrap;rounded=0;spacingLeft=0;spacing=2;spacingRight=0;spacingBottom=1;" vertex="1" parent="24">
                    <mxGeometry x="10" width="10" height="10" as="geometry"/>
                </mxCell>
                <mxCell id="27" value="&lt;span style=&quot;font-size: 8px;&quot;&gt;2&lt;/span&gt;" style="text;html=1;strokeColor=none;fillColor=none;align=center;verticalAlign=middle;whiteSpace=wrap;rounded=0;spacingLeft=0;spacing=2;spacingRight=0;spacingBottom=1;" vertex="1" parent="24">
                    <mxGeometry x="20" width="10" height="10" as="geometry"/>
                </mxCell>
                <mxCell id="28" value="&lt;span style=&quot;font-size: 8px;&quot;&gt;3&lt;/span&gt;" style="text;html=1;strokeColor=none;fillColor=none;align=center;verticalAlign=middle;whiteSpace=wrap;rounded=0;spacingLeft=0;spacing=2;spacingRight=0;spacingBottom=1;" vertex="1" parent="24">
                    <mxGeometry x="30" width="10" height="10" as="geometry"/>
                </mxCell>
                <mxCell id="29" value="&lt;span style=&quot;font-size: 8px;&quot;&gt;4&lt;/span&gt;" style="text;html=1;strokeColor=none;fillColor=none;align=center;verticalAlign=middle;whiteSpace=wrap;rounded=0;spacingLeft=0;spacing=2;spacingRight=0;spacingBottom=1;" vertex="1" parent="24">
                    <mxGeometry x="40" width="10" height="10" as="geometry"/>
                </mxCell>
                <mxCell id="30" value="&lt;span style=&quot;font-size: 8px;&quot;&gt;5&lt;/span&gt;" style="text;html=1;strokeColor=none;fillColor=none;align=center;verticalAlign=middle;whiteSpace=wrap;rounded=0;spacingLeft=0;spacing=2;spacingRight=0;spacingBottom=1;" vertex="1" parent="24">
                    <mxGeometry x="50" width="10" height="10" as="geometry"/>
                </mxCell>
                <mxCell id="31" value="&lt;span style=&quot;font-size: 8px;&quot;&gt;6&lt;/span&gt;" style="text;html=1;strokeColor=none;fillColor=none;align=center;verticalAlign=middle;whiteSpace=wrap;rounded=0;spacingLeft=0;spacing=2;spacingRight=0;spacingBottom=1;" vertex="1" parent="24">
                    <mxGeometry x="60" width="10" height="10" as="geometry"/>
                </mxCell>
                <mxCell id="32" value="&lt;span style=&quot;font-size: 8px;&quot;&gt;7&lt;/span&gt;" style="text;html=1;strokeColor=none;fillColor=none;align=center;verticalAlign=middle;whiteSpace=wrap;rounded=0;spacingLeft=0;spacing=2;spacingRight=0;spacingBottom=1;" vertex="1" parent="24">
                    <mxGeometry x="70" width="10" height="10" as="geometry"/>
                </mxCell>
                <mxCell id="33" value="" style="shape=curlyBracket;whiteSpace=wrap;html=1;rounded=1;labelPosition=left;verticalLabelPosition=middle;align=right;verticalAlign=middle;direction=south;" vertex="1" parent="1">
                    <mxGeometry x="180" y="76" width="170" height="10" as="geometry"/>
                </mxCell>
                <mxCell id="34" value="64字节" style="text;html=1;strokeColor=none;fillColor=none;align=center;verticalAlign=middle;whiteSpace=wrap;rounded=0;fontSize=8;" vertex="1" parent="1">
                    <mxGeometry x="250" y="66" width="30" height="10" as="geometry"/>
                </mxCell>
                <mxCell id="35" value="0xc0" style="rounded=0;whiteSpace=wrap;html=1;fontSize=8;fillColor=none;strokeColor=none;" vertex="1" parent="1">
                    <mxGeometry x="160" y="116" width="10" height="10" as="geometry"/>
                </mxCell>
                <mxCell id="36" value="0x100" style="rounded=0;whiteSpace=wrap;html=1;fontSize=8;fillColor=none;strokeColor=none;" vertex="1" parent="1">
                    <mxGeometry x="160" y="126" width="10" height="10" as="geometry"/>
                </mxCell>
                <mxCell id="37" value="0x140" style="rounded=0;whiteSpace=wrap;html=1;fontSize=8;fillColor=none;strokeColor=none;" vertex="1" parent="1">
                    <mxGeometry x="160" y="136" width="10" height="10" as="geometry"/>
                </mxCell>
                <mxCell id="38" value="0x180" style="rounded=0;whiteSpace=wrap;html=1;fontSize=8;fillColor=none;strokeColor=none;" vertex="1" parent="1">
                    <mxGeometry x="160" y="146" width="10" height="10" as="geometry"/>
                </mxCell>
                <mxCell id="39" value="0x1c0" style="rounded=0;whiteSpace=wrap;html=1;fontSize=8;fillColor=none;strokeColor=none;" vertex="1" parent="1">
                    <mxGeometry x="160" y="156" width="10" height="10" as="geometry"/>
                </mxCell>
                <mxCell id="40" value="meta" style="rounded=0;whiteSpace=wrap;html=1;fontSize=10;fillColor=#f5f5f5;fontColor=#333333;strokeColor=#666666;" vertex="1" parent="1">
                    <mxGeometry x="180" y="116" width="30" height="10" as="geometry"/>
                </mxCell>
                <mxCell id="41" value="" style="endArrow=none;html=1;rounded=0;" edge="1" parent="1">
                    <mxGeometry width="50" height="50" relative="1" as="geometry">
                        <mxPoint x="180" y="166" as="sourcePoint"/>
                        <mxPoint x="350" y="166" as="targetPoint"/>
                        <Array as="points">
                            <mxPoint x="180" y="86"/>
                            <mxPoint x="350" y="86"/>
                        </Array>
                    </mxGeometry>
                </mxCell>
                <mxCell id="42" value="" style="endArrow=none;html=1;rounded=0;fillColor=#f5f5f5;strokeColor=#666666;" edge="1" parent="1">
                    <mxGeometry width="50" height="50" relative="1" as="geometry">
                        <mxPoint x="180" y="96" as="sourcePoint"/>
                        <mxPoint x="350" y="96" as="targetPoint"/>
                    </mxGeometry>
                </mxCell>
                <mxCell id="43" value="" style="endArrow=none;html=1;rounded=0;fillColor=#f5f5f5;strokeColor=#666666;" edge="1" parent="1">
                    <mxGeometry width="50" height="50" relative="1" as="geometry">
                        <mxPoint x="180" y="106" as="sourcePoint"/>
                        <mxPoint x="350" y="106" as="targetPoint"/>
                    </mxGeometry>
                </mxCell>
                <mxCell id="44" value="" style="endArrow=none;html=1;rounded=0;fillColor=#f5f5f5;strokeColor=#666666;" edge="1" parent="1">
                    <mxGeometry width="50" height="50" relative="1" as="geometry">
                        <mxPoint x="180" y="116" as="sourcePoint"/>
                        <mxPoint x="350" y="116" as="targetPoint"/>
                    </mxGeometry>
                </mxCell>
                <mxCell id="45" value="" style="endArrow=none;html=1;rounded=0;fillColor=#f5f5f5;strokeColor=#666666;" edge="1" parent="1">
                    <mxGeometry width="50" height="50" relative="1" as="geometry">
                        <mxPoint x="180" y="126" as="sourcePoint"/>
                        <mxPoint x="350" y="126" as="targetPoint"/>
                    </mxGeometry>
                </mxCell>
                <mxCell id="46" value="" style="endArrow=none;html=1;rounded=0;fillColor=#f5f5f5;strokeColor=#666666;" edge="1" parent="1">
                    <mxGeometry width="50" height="50" relative="1" as="geometry">
                        <mxPoint x="180" y="136" as="sourcePoint"/>
                        <mxPoint x="350" y="136" as="targetPoint"/>
                    </mxGeometry>
                </mxCell>
                <mxCell id="47" value="" style="endArrow=none;html=1;rounded=0;fillColor=#f5f5f5;strokeColor=#666666;" edge="1" parent="1">
                    <mxGeometry width="50" height="50" relative="1" as="geometry">
                        <mxPoint x="180" y="146" as="sourcePoint"/>
                        <mxPoint x="350" y="146" as="targetPoint"/>
                    </mxGeometry>
                </mxCell>
                <mxCell id="48" value="" style="endArrow=none;html=1;rounded=0;fillColor=#f5f5f5;strokeColor=#666666;" edge="1" parent="1">
                    <mxGeometry width="50" height="50" relative="1" as="geometry">
                        <mxPoint x="180" y="156" as="sourcePoint"/>
                        <mxPoint x="350" y="156" as="targetPoint"/>
                    </mxGeometry>
                </mxCell>
                <mxCell id="49" value="" style="endArrow=none;html=1;rounded=0;fillColor=#f5f5f5;strokeColor=#666666;" edge="1" parent="1">
                    <mxGeometry width="50" height="50" relative="1" as="geometry">
                        <mxPoint x="180" y="166" as="sourcePoint"/>
                        <mxPoint x="350" y="166" as="targetPoint"/>
                    </mxGeometry>
                </mxCell>
                <mxCell id="50" value="d0" style="rounded=0;whiteSpace=wrap;html=1;fontSize=10;fillColor=#eeeeee;strokeColor=#36393d;" vertex="1" parent="1">
                    <mxGeometry x="230" y="116" width="20" height="10" as="geometry"/>
                </mxCell>
                <mxCell id="51" value="d0" style="rounded=0;whiteSpace=wrap;html=1;fontSize=10;fillColor=#eeeeee;strokeColor=#36393d;" vertex="1" parent="1">
                    <mxGeometry x="250" y="106" width="20" height="10" as="geometry"/>
                </mxCell>
                <mxCell id="52" value="b0" style="rounded=0;whiteSpace=wrap;html=1;fontSize=10;fillColor=#eeeeee;strokeColor=#36393d;" vertex="1" parent="1">
                    <mxGeometry x="230" y="86" width="20" height="10" as="geometry"/>
                </mxCell>
                <mxCell id="65" style="edgeStyle=none;html=1;exitX=0;exitY=1;exitDx=0;exitDy=0;entryX=1;entryY=0;entryDx=0;entryDy=0;dashed=1;" edge="1" parent="1" source="53" target="51">
                    <mxGeometry relative="1" as="geometry"/>
                </mxCell>
                <mxCell id="53" value="E" style="rounded=0;whiteSpace=wrap;html=1;fontSize=10;fillColor=#e1d5e7;strokeColor=#9673a6;" vertex="1" parent="1">
                    <mxGeometry x="60" y="80" width="20" height="10" as="geometry"/>
                </mxCell>
                <mxCell id="54" value="F" style="rounded=0;whiteSpace=wrap;html=1;fontSize=10;fillColor=#fad9d5;strokeColor=#ae4132;" vertex="1" parent="1">
                    <mxGeometry x="80" y="80" width="20" height="10" as="geometry"/>
                </mxCell>
                <mxCell id="55" value="..." style="rounded=0;whiteSpace=wrap;html=1;fontSize=10;fillColor=#ffe6cc;strokeColor=#d79b00;" vertex="1" parent="1">
                    <mxGeometry x="100" y="80" width="40" height="10" as="geometry"/>
                </mxCell>
                <mxCell id="57" value="e0" style="rounded=0;whiteSpace=wrap;html=1;fontSize=10;fillColor=#e1d5e7;strokeColor=#9673a6;shadow=0;" vertex="1" parent="1">
                    <mxGeometry x="270" y="106" width="20" height="10" as="geometry"/>
                </mxCell>
                <mxCell id="58" value="e0" style="rounded=0;whiteSpace=wrap;html=1;fontSize=10;fillColor=#e1d5e7;strokeColor=#9673a6;" vertex="1" parent="1">
                    <mxGeometry x="250" y="116" width="20" height="10" as="geometry"/>
                </mxCell>
                <mxCell id="59" value="e0" style="rounded=0;whiteSpace=wrap;html=1;fontSize=10;fillColor=#e1d5e7;strokeColor=#9673a6;" vertex="1" parent="1">
                    <mxGeometry x="230" y="146" width="20" height="10" as="geometry"/>
                </mxCell>
                <mxCell id="60" value="f0" style="rounded=0;whiteSpace=wrap;html=1;fontSize=10;fillColor=#fad9d5;strokeColor=#ae4132;" vertex="1" parent="1">
                    <mxGeometry x="270" y="116" width="20" height="10" as="geometry"/>
                </mxCell>
                <mxCell id="61" value="f0" style="rounded=0;whiteSpace=wrap;html=1;fontSize=10;fillColor=#fad9d5;strokeColor=#ae4132;" vertex="1" parent="1">
                    <mxGeometry x="250" y="146" width="20" height="10" as="geometry"/>
                </mxCell>
            </root>
        </mxGraphModel>
    </diagram>
</mxfile>